<svg xmlns="http://www.w3.org/2000/svg" xmlns:xlink="http://www.w3.org/1999/xlink" id="Product_Color" x="0" y="0" version="1.1" viewBox="0 0 1110.1 846.5" style="enable-background:new 0 0 1110.1 846.5" xml:space="preserve"><style type="text/css">.st0{fill:#9d1d96;stroke:#9d1d96;stroke-width:2.4586}</style><symbol id="New_Symbol_4" viewBox="-170.5 -101.8 189.4 202"><path d="M-34.2,19.7v73.2c0,1.8,0.7,3.2,2.2,4.3c1.5,1.1,2.9,1.6,4.2,1.6h39.6c1.9,0,3.3-0.6,4.4-1.7 c1-1.2,1.5-2.6,1.5-4.2V-94.7c0-3.9-2-5.9-6-5.9h-39.5c-4.3,0-6.4,2-6.4,5.9v52.4V19.7z" class="st0"/><path d="M-113.8-95.6c-1-1.5-2.2-2.7-3.7-3.6c-1.5-0.9-3-1.3-4.5-1.3h-44.3c-2,0-3,0.7-3,2c0,0.9,0.5,2.1,1.5,3.6 l63.4,94.3l-63.2,94.3c-1,1.3-1.5,2.3-1.5,3.2c0,1.3,1.1,2,3.2,2h45.3c1.5,0,3.1-0.5,4.6-1.4c1.6-0.9,2.8-2.2,3.8-3.7 c9.7-12.5,55.9-82.3,65.7-94.9C-46.4-1-109.1-89.2-113.8-95.6z" class="st0"/></symbol><g id="New_Symbol"><use id="XMLID_3_" width="189.4" height="202" x="-170.5" y="-101.8" transform="matrix(1 0 0 -1 630.7962 405.0301)" xlink:href="#New_Symbol_4" style="overflow:visible"/></g></svg>